<svg xmlns="http://www.w3.org/2000/svg" viewBox="0 0 512 512"><rect width="512" height="512" fill="#2c3e50" rx="25" ry="25"/><g transform="translate(20 20)" fill="#9b59b6"><path d="M0 10h512v4H0zM0 20h512v4H0z" opacity=".3"/></g><g transform="translate(116 116)"><rect width="280" height="190" rx="13" ry="13" fill="#1fbc9c"/><g opacity=".2" fill="#000"><path d="M30 20h220v10H30zM30 40h220v10H30zM30 60h220v10H30zM30 80h220v10H30zM30 100h220v10H30zM30 120h220v10H30zM30 140h220v10H30z"/></g></g><g fill="#9b59b6"><circle cx="160" cy="390" r="40"/><circle cx="352" cy="390" r="40"/></g><g fill="#f1c24c"><rect x="212" y="390" width="88" height="10" rx="5" ry="5"/></g></svg>